<?xml version="1.0" encoding="UTF-8" standalone="no"?>
<svg
   xmlns:dc="http://purl.org/dc/elements/1.1/"
   xmlns:cc="http://creativecommons.org/ns#"
   xmlns:rdf="http://www.w3.org/1999/02/22-rdf-syntax-ns#"
   xmlns:svg="http://www.w3.org/2000/svg"
   xmlns="http://www.w3.org/2000/svg"
   xmlns:sodipodi="http://sodipodi.sourceforge.net/DTD/sodipodi-0.dtd"
   xmlns:inkscape="http://www.inkscape.org/namespaces/inkscape"
   width="1256"
   height="125"
   viewBox="0 0 332.31666 33.072892"
   version="1.1"
   id="svg8"
   inkscape:version="1.0.1 (3bc2e813f5, 2020-09-07)"
   sodipodi:docname="name brand.svg">
  <defs
     id="defs2" />
  <sodipodi:namedview
     id="base"
     pagecolor="#00489d"
     bordercolor="#666666"
     borderopacity="1.0"
     inkscape:pageopacity="1"
     inkscape:pageshadow="2"
     inkscape:zoom="0.35"
     inkscape:cx="-41.5707"
     inkscape:cy="326.72698"
     inkscape:document-units="mm"
     inkscape:current-layer="layer1"
     inkscape:document-rotation="0"
     showgrid="false"
     units="px"
     inkscape:window-width="1920"
     inkscape:window-height="1017"
     inkscape:window-x="-8"
     inkscape:window-y="-8"
     inkscape:window-maximized="1" />
  <metadata
     id="metadata5">
    <rdf:RDF>
      <cc:Work
         rdf:about="">
        <dc:format>image/svg+xml</dc:format>
        <dc:type
           rdf:resource="http://purl.org/dc/dcmitype/StillImage" />
        <dc:title></dc:title>
      </cc:Work>
    </rdf:RDF>
  </metadata>
  <g
     inkscape:label="Layer 1"
     inkscape:groupmode="layer"
     id="layer1">
    <g
       id="g72"
       transform="matrix(1.2496955,0,0,1.2496955,804.93008,-156.43437)">
      <g
         aria-label="Hocine"
         id="text12"
         style="font-style:normal;font-weight:normal;font-size:25.4px;line-height:1.25;font-family:sans-serif;fill:#ffffff;fill-opacity:1;stroke:none;stroke-width:1.0286">
        <path
           d="m -627.50034,135.17308 h -9.76065 v 6.10196 q 0,0.37207 0.17364,0.58291 0.18603,0.19843 0.62011,0.31006 v 0.39687 h -5.28339 v -0.39687 q 0.44648,-0.12403 0.62011,-0.32247 0.17364,-0.19843 0.17364,-0.5705 v -14.34951 q 0,-0.37208 -0.17364,-0.57051 -0.17363,-0.19844 -0.62011,-0.32246 v -0.39688 h 5.28339 v 0.39688 q -0.44648,0.11162 -0.62011,0.32246 -0.17364,0.19843 -0.17364,0.57051 v 5.45703 h 9.76065 v -5.45703 q 0,-0.37208 -0.17363,-0.57051 -0.17364,-0.21084 -0.62012,-0.32246 v -0.39688 h 5.2834 v 0.39688 q -0.44649,0.12402 -0.62012,0.32246 -0.17363,0.19843 -0.17363,0.57051 v 14.34951 q 0,0.37207 0.17363,0.5705 0.17363,0.19844 0.62012,0.32247 v 0.39687 h -5.2834 v -0.39687 q 0.43408,-0.11163 0.60771,-0.31006 0.18604,-0.21084 0.18604,-0.58291 z"
           style="font-style:normal;font-variant:normal;font-weight:normal;font-stretch:normal;font-size:25.4px;font-family:'Copperplate Gothic Bold';-inkscape-font-specification:'Copperplate Gothic Bold, ';fill:#ffffff;stroke-width:1.0286"
           id="path20" />
        <path
           d="m -612.4563,128.3766 q 3.31143,0 5.51904,1.68672 2.6417,2.03398 2.6417,5.66787 0,3.41064 -2.6417,5.44463 -2.18281,1.68672 -5.49423,1.68672 -3.31143,0 -5.49424,-1.68672 -2.6541,-2.03399 -2.6541,-5.55625 0,-3.55947 2.6541,-5.55625 2.19521,-1.64951 5.46943,-1.68672 z m 0.0124,2.6293 q -2.1456,0 -3.49746,1.37666 -1.25263,1.28984 -1.25263,3.23701 0,1.93476 1.25263,3.22461 1.35186,1.38906 3.50987,1.38906 2.1456,0 3.49746,-1.38906 1.25263,-1.27744 1.25263,-3.1626 0,-2.04639 -1.25263,-3.29902 -1.36426,-1.35186 -3.50987,-1.37666 z"
           style="font-style:normal;font-variant:normal;font-weight:normal;font-stretch:normal;font-size:25.4px;font-family:'Copperplate Gothic Bold';-inkscape-font-specification:'Copperplate Gothic Bold, ';fill:#ffffff;stroke-width:1.0286"
           id="path22" />
        <path
           d="m -588.58179,137.59154 2.096,3.05098 -0.28526,0.21084 q -0.29765,-0.21084 -0.47129,-0.21084 -0.21084,0 -0.97978,0.45888 -1.69912,0.99219 -3.00137,1.37666 -1.30224,0.38448 -3.00137,0.38448 -3.39824,0 -5.54384,-1.62471 -1.21543,-0.93018 -1.93477,-2.33164 -0.76894,-1.51309 -0.76894,-3.28662 0,-2.44326 1.41386,-4.31602 2.22002,-2.92695 6.80889,-2.92695 1.69912,0 3.01377,0.38447 1.32705,0.38447 3.01377,1.37666 0.76894,0.45889 0.97978,0.45889 0.17364,0 0.47129,-0.21084 l 0.28526,0.22324 -2.096,3.03858 -0.27285,-0.19844 q 0.0124,-0.14883 0.0248,-0.18604 0.0124,-0.11162 0.0124,-0.16123 0,-0.60771 -1.67432,-1.37666 -1.5875,-0.73174 -3.1998,-0.73174 -2.25723,0 -3.72071,1.19063 -1.67431,1.33945 -1.67431,3.43545 0,2.1084 1.67431,3.44785 1.47588,1.17822 3.72071,1.17822 1.76113,0 3.50986,-0.88056 1.36426,-0.69454 1.36426,-1.21543 0,-0.0248 -0.0372,-0.34727 z"
           style="font-style:normal;font-variant:normal;font-weight:normal;font-stretch:normal;font-size:25.4px;font-family:'Copperplate Gothic Bold';-inkscape-font-specification:'Copperplate Gothic Bold, ';fill:#ffffff;stroke-width:1.0286"
           id="path24" />
        <path
           d="m -580.34663,129.93929 v 11.36055 q 0,0.38447 0.17363,0.59531 0.17364,0.19844 0.62012,0.33487 v 0.33486 h -4.91133 v -0.34727 q 0.43408,-0.11162 0.60772,-0.32246 0.18603,-0.21084 0.18603,-0.59531 v -11.36055 q 0,-0.38447 -0.17363,-0.58291 -0.17363,-0.19843 -0.62012,-0.33486 v -0.34726 h 4.91133 v 0.34726 q -0.44648,0.12402 -0.62012,0.33486 -0.17363,0.19844 -0.17363,0.58291 z"
           style="font-style:normal;font-variant:normal;font-weight:normal;font-stretch:normal;font-size:25.4px;font-family:'Copperplate Gothic Bold';-inkscape-font-specification:'Copperplate Gothic Bold, ';fill:#ffffff;stroke-width:1.0286"
           id="path26" />
        <path
           d="m -573.2897,133.41195 v 7.88789 q 0,0.38447 0.17363,0.59531 0.18604,0.21084 0.62012,0.33487 v 0.33486 h -4.61367 v -0.34727 q 0.43408,-0.11162 0.60771,-0.32246 0.18604,-0.21084 0.18604,-0.59531 v -11.36055 q 0,-0.38447 -0.17363,-0.58291 -0.17364,-0.19843 -0.62012,-0.33486 v -0.34726 h 5.33301 v 0.34726 q -0.54571,0.13643 -0.54571,0.48369 0,0.29766 0.39688,0.69453 l 7.44141,7.3918 v -7.65225 q 0,-0.38447 -0.17364,-0.58291 -0.17363,-0.21084 -0.62011,-0.33486 v -0.34726 h 4.61367 v 0.34726 q -0.44649,0.12402 -0.62012,0.33486 -0.17363,0.19844 -0.17363,0.58291 v 11.36055 q 0,0.38447 0.17363,0.59531 0.17363,0.19844 0.62012,0.33487 v 0.33486 h -4.97334 v -0.33486 q 0.5457,-0.11162 0.5457,-0.45889 0,-0.17363 -0.14883,-0.35967 -0.14883,-0.18603 -0.68213,-0.73174 z"
           style="font-style:normal;font-variant:normal;font-weight:normal;font-stretch:normal;font-size:25.4px;font-family:'Copperplate Gothic Bold';-inkscape-font-specification:'Copperplate Gothic Bold, ';fill:#ffffff;stroke-width:1.0286"
           id="path28" />
        <path
           d="m -554.10327,136.66136 v 3.38584 h 8.81806 q 0.38448,0 0.58291,-0.17363 0.21084,-0.17363 0.33487,-0.63252 h 0.34726 v 4.11758 h -0.34726 q -0.11162,-0.43408 -0.32246,-0.62012 -0.21084,-0.17363 -0.59532,-0.17363 h -12.93564 v -0.34727 q 0.43408,-0.11162 0.60772,-0.32246 0.18603,-0.21084 0.18603,-0.59531 v -11.36055 q 0,-0.38447 -0.17363,-0.58291 -0.17364,-0.19843 -0.62012,-0.33486 v -0.34726 h 12.55117 q 0.39688,0 0.59531,-0.17364 0.21084,-0.17363 0.33487,-0.62011 h 0.33486 v 4.11757 h -0.33486 q -0.12403,-0.45888 -0.33487,-0.63252 -0.19843,-0.17363 -0.59531,-0.17363 h -8.43359 v 3.05098 h 5.23379 q 0.38447,0 0.58291,-0.17363 0.21084,-0.17364 0.34726,-0.62012 h 0.33487 v 4.01836 h -0.33487 q -0.12402,-0.44649 -0.33486,-0.62012 -0.19844,-0.18604 -0.59531,-0.18604 z"
           style="font-style:normal;font-variant:normal;font-weight:normal;font-stretch:normal;font-size:25.4px;font-family:'Copperplate Gothic Bold';-inkscape-font-specification:'Copperplate Gothic Bold, ';fill:#ffffff;stroke-width:1.0286"
           id="path30" />
      </g>
      <g
         aria-label="Benzagouta"
         id="text16"
         style="font-style:normal;font-weight:normal;font-size:25.4px;line-height:1.25;font-family:sans-serif;fill:#ffffff;fill-opacity:1;stroke:none;stroke-width:0.264583">
        <path
           d="m -525.05266,142.39721 q 2.95176,0.99219 2.95176,4.09278 0,1.50068 -0.79375,2.6417 -0.78135,1.12861 -2.1084,1.5999 -1.32705,0.45889 -3.78272,0.45889 h -9.85986 v -0.39688 q 0.47129,-0.12402 0.63252,-0.33486 0.16123,-0.21084 0.16123,-0.73174 v -14.00225 q 0,-0.5209 -0.16123,-0.73174 -0.16123,-0.22324 -0.63252,-0.33486 v -0.39687 h 10.09551 q 1.48828,0 2.45566,0.23564 0.97979,0.23565 1.72393,0.78135 1.71152,1.22783 1.71152,3.52226 0,2.44327 -2.39365,3.59668 z m -10.85205,-0.83095 h 6.52363 q 1.38906,0 2.07119,-0.0868 0.69453,-0.0868 1.27744,-0.32246 0.71934,-0.29766 1.11621,-0.91777 0.39688,-0.62012 0.39688,-1.43868 0,-1.0914 -0.70693,-1.86035 -0.57051,-0.60771 -1.48829,-0.83095 -0.90537,-0.23565 -2.79052,-0.23565 h -6.39961 z m 0,8.01191 h 6.79648 q 1.46348,0 2.17041,-0.0868 0.70694,-0.0992 1.31465,-0.37207 0.74414,-0.34726 1.15342,-1.04179 0.42168,-0.69453 0.42168,-1.61231 0,-1.21543 -0.73174,-2.07119 -0.60771,-0.70693 -1.55029,-0.95498 -0.94258,-0.26045 -2.90215,-0.26045 h -6.67246 z"
           style="font-style:normal;font-variant:normal;font-weight:normal;font-stretch:normal;font-size:25.4px;font-family:'Copperplate Gothic Light';-inkscape-font-specification:'Copperplate Gothic Light, ';fill:#ffffff;stroke-width:0.264583"
           id="path33" />
        <path
           d="m -516.68108,144.69165 v 5.14697 h 8.58242 q 0.5209,0 0.73174,-0.16123 0.22324,-0.16123 0.33486,-0.64492 h 0.34727 v 2.95176 h -0.34727 q -0.11162,-0.47129 -0.32246,-0.63252 -0.21084,-0.16123 -0.73174,-0.16123 h -11.16211 v -0.33487 q 0.4837,-0.12402 0.63252,-0.33486 0.16123,-0.22324 0.16123,-0.73174 v -11.08769 q 0,-0.5209 -0.16123,-0.73174 -0.16123,-0.21084 -0.63252,-0.33487 v -0.33486 h 11.0753 q 0.5209,0 0.73174,-0.16123 0.21084,-0.16123 0.33486,-0.63252 h 0.33486 v 2.95176 h -0.33486 q -0.12402,-0.48369 -0.33486,-0.64492 -0.21084,-0.16123 -0.73174,-0.16123 h -8.50801 v 4.68808 h 5.41982 q 0.5209,0 0.73174,-0.16123 0.21084,-0.16123 0.33487,-0.63252 h 0.33486 v 2.95176 h -0.33486 q -0.12403,-0.48369 -0.34727,-0.64492 -0.21084,-0.16123 -0.71934,-0.16123 z"
           style="font-style:normal;font-variant:normal;font-weight:normal;font-stretch:normal;font-size:25.4px;font-family:'Copperplate Gothic Light';-inkscape-font-specification:'Copperplate Gothic Light, ';fill:#ffffff;stroke-width:0.264583"
           id="path35" />
        <path
           d="m -501.83547,139.47026 v 10.31875 q 0,0.5085 0.14882,0.73174 0.16123,0.21084 0.64493,0.33486 v 0.33487 h -3.06338 v -0.33487 q 0.48369,-0.12402 0.63252,-0.33486 0.16123,-0.22324 0.16123,-0.73174 v -11.08769 q 0,-0.5209 -0.16123,-0.73174 -0.16123,-0.21084 -0.63252,-0.33487 v -0.33486 h 4.51445 v 0.33486 q -0.64492,0.21084 -0.64492,0.64493 0,0.37207 0.47129,0.89296 l 8.19795,9.17774 v -9.64902 q 0,-0.5209 -0.16123,-0.73174 -0.16123,-0.21084 -0.63252,-0.33487 v -0.33486 h 3.06338 v 0.33486 q -0.47129,0.12403 -0.63252,0.33487 -0.16123,0.21084 -0.16123,0.73174 v 11.08769 q 0,0.5085 0.14882,0.73174 0.16123,0.21084 0.64493,0.33486 v 0.33487 h -3.63389 v -0.33487 q 0.64492,-0.16123 0.64492,-0.50849 0,-0.26045 -0.59531,-0.93018 z"
           style="font-style:normal;font-variant:normal;font-weight:normal;font-stretch:normal;font-size:25.4px;font-family:'Copperplate Gothic Light';-inkscape-font-specification:'Copperplate Gothic Light, ';fill:#ffffff;stroke-width:0.264583"
           id="path37" />
        <path
           d="m -474.84798,137.29985 v 0.21084 l -9.42578,12.32793 h 8.04912 q 0.5209,0 0.73174,-0.16123 0.22324,-0.16123 0.34727,-0.64492 h 0.33486 v 2.95176 h -0.33486 q -0.12403,-0.47129 -0.34727,-0.63252 -0.21084,-0.16123 -0.73174,-0.16123 h -11.03808 v -0.27286 l 9.51259,-12.26591 h -7.9747 q -0.5209,0 -0.73174,0.16123 -0.21084,0.16123 -0.33486,0.64492 h -0.33487 v -2.95176 h 0.33487 q 0.12402,0.47129 0.33486,0.63252 0.21084,0.16123 0.73174,0.16123 z"
           style="font-style:normal;font-variant:normal;font-weight:normal;font-stretch:normal;font-size:25.4px;font-family:'Copperplate Gothic Light';-inkscape-font-specification:'Copperplate Gothic Light, ';fill:#ffffff;stroke-width:0.264583"
           id="path39" />
        <path
           d="m -462.90452,147.28374 h -7.28017 l -1.0542,2.33164 q -0.19844,0.43408 -0.19844,0.64492 0,0.42168 0.64492,0.59531 v 0.33487 h -3.42304 v -0.33487 q 0.49609,-0.0868 0.76894,-0.38447 0.28526,-0.31006 0.66973,-1.16582 l 4.60127,-9.99629 q 0.38447,-0.83096 0.38447,-1.14102 0,-0.43408 -0.62012,-0.5333 v -0.33486 h 4.03076 v 0.33486 q -0.62011,0.13643 -0.62011,0.5333 0,0.23565 0.49609,1.32706 l 4.41524,9.61181 q 0.44648,0.95498 0.76894,1.31465 0.32246,0.35967 0.81856,0.43408 v 0.33487 h -3.62149 v -0.33487 q 0.58291,-0.12402 0.58291,-0.42168 0,-0.14883 -0.29766,-0.81855 z m -0.58291,-1.35186 -3.03857,-6.79648 -3.06338,6.79648 z"
           style="font-style:normal;font-variant:normal;font-weight:normal;font-stretch:normal;font-size:25.4px;font-family:'Copperplate Gothic Light';-inkscape-font-specification:'Copperplate Gothic Light, ';fill:#ffffff;stroke-width:0.264583"
           id="path41" />
        <path
           d="m -442.1554,138.6021 -1.69912,2.72851 -0.28525,-0.17363 q 0.12402,-0.43408 0.12402,-0.58291 0,-0.32246 -1.17822,-1.00459 -1.90996,-1.079 -4.05557,-1.079 -2.62929,0 -4.36562,1.51308 -1.93477,1.67432 -1.93477,4.32842 0,2.51768 1.77354,4.11758 1.74873,1.5999 4.61367,1.5999 1.43867,0 2.74092,-0.42168 1.30224,-0.43408 2.20761,-1.19062 v -2.55489 h -3.12539 q -0.5209,0 -0.74414,0.16123 -0.21084,0.16123 -0.32246,0.63252 h -0.33486 v -2.95176 h 0.33486 q 0.11162,0.4837 0.32246,0.64493 0.22324,0.16123 0.74414,0.16123 h 5.48184 v 0.33486 q -0.48369,0.11162 -0.64492,0.33486 -0.16123,0.21084 -0.16123,0.73174 v 1.43867 q 0,0.5209 0.16123,0.74414 0.16123,0.21084 0.64492,0.32247 v 0.28525 q -3.22461,2.76572 -7.50342,2.76572 -3.37344,0 -5.53144,-1.81074 -1.15342,-0.97979 -1.81075,-2.35645 -0.70693,-1.46347 -0.70693,-3.03857 0,-2.33164 1.41387,-4.20439 1.26504,-1.66192 3.36103,-2.44327 1.5627,-0.58291 3.34864,-0.58291 1.53789,0 2.80292,0.37207 1.27745,0.37207 3.05098,1.32705 0.28526,0.14883 0.40928,0.14883 0.14883,0 0.58291,-0.49609 z"
           style="font-style:normal;font-variant:normal;font-weight:normal;font-stretch:normal;font-size:25.4px;font-family:'Copperplate Gothic Light';-inkscape-font-specification:'Copperplate Gothic Light, ';fill:#ffffff;stroke-width:0.264583"
           id="path43" />
        <path
           d="m -431.27854,137.00219 q 3.7083,0 5.97792,1.93477 2.41846,2.04639 2.41846,5.40742 0,2.096 -1.19062,3.84473 -2.24483,3.29902 -7.18096,3.29902 -3.6835,0 -5.95312,-1.93476 -2.41846,-2.05879 -2.41846,-5.30821 0,-2.19521 1.17822,-3.94394 1.25264,-1.84795 3.50986,-2.69131 1.5503,-0.58291 3.6587,-0.60772 z m 0,1.43868 q -3.02618,0 -4.87413,1.86035 -1.6123,1.6123 -1.6123,3.94394 0,2.33164 1.6123,3.94395 1.84795,1.86035 4.89893,1.86035 3.05098,0 4.89893,-1.86035 1.6123,-1.61231 1.6123,-3.86953 0,-2.44326 -1.6123,-4.01836 -1.86036,-1.83555 -4.92373,-1.86035 z"
           style="font-style:normal;font-variant:normal;font-weight:normal;font-stretch:normal;font-size:25.4px;font-family:'Copperplate Gothic Light';-inkscape-font-specification:'Copperplate Gothic Light, ';fill:#ffffff;stroke-width:0.264583"
           id="path45" />
        <path
           d="m -417.94602,138.70132 v 7.13134 q 0,1.64951 0.16123,2.28203 0.16123,0.62012 0.70693,1.0418 1.11621,0.89297 3.81992,0.89297 2.98897,0 4.04317,-1.09141 0.38447,-0.40927 0.50849,-1.00459 0.12403,-0.60771 0.12403,-2.1208 v -7.13134 q 0,-0.5085 -0.16123,-0.71934 -0.16123,-0.22324 -0.63252,-0.34727 v -0.33486 h 3.06338 v 0.33486 q -0.47129,0.12403 -0.63252,0.33487 -0.16123,0.21084 -0.16123,0.73174 v 7.49101 q 0,1.90996 -0.32246,2.69131 -0.54571,1.33945 -1.99678,1.97197 -1.45108,0.63252 -3.99356,0.63252 -3.64629,0 -5.10976,-1.35185 -0.70694,-0.64493 -0.95498,-1.45108 -0.23565,-0.80615 -0.23565,-2.49287 v -7.49101 q 0,-0.5209 -0.16123,-0.73174 -0.16123,-0.21084 -0.63252,-0.33487 v -0.33486 h 3.36104 v 0.33486 q -0.47129,0.12403 -0.63252,0.34727 -0.16123,0.21084 -0.16123,0.71934 z"
           style="font-style:normal;font-variant:normal;font-weight:normal;font-stretch:normal;font-size:25.4px;font-family:'Copperplate Gothic Light';-inkscape-font-specification:'Copperplate Gothic Light, ';fill:#ffffff;stroke-width:0.264583"
           id="path47" />
        <path
           d="m -397.1845,138.72612 v 11.06289 q 0,0.5085 0.14883,0.73174 0.16123,0.21084 0.64492,0.33486 v 0.33487 h -3.36104 v -0.33487 q 0.47129,-0.12402 0.63252,-0.33486 0.16123,-0.22324 0.16123,-0.73174 v -11.06289 h -4.52685 q -0.5209,0 -0.73174,0.16123 -0.21084,0.16123 -0.33486,0.64492 h -0.33487 v -2.95176 h 0.33487 q 0.12402,0.47129 0.33486,0.63252 0.21084,0.16123 0.73174,0.16123 h 10.82725 q 0.52089,0 0.73173,-0.16123 0.21084,-0.16123 0.33487,-0.63252 h 0.33486 v 2.95176 h -0.33486 q -0.12403,-0.48369 -0.34727,-0.64492 -0.21084,-0.16123 -0.71933,-0.16123 z"
           style="font-style:normal;font-variant:normal;font-weight:normal;font-stretch:normal;font-size:25.4px;font-family:'Copperplate Gothic Light';-inkscape-font-specification:'Copperplate Gothic Light, ';fill:#ffffff;stroke-width:0.264583"
           id="path49" />
        <path
           d="m -381.24749,147.28374 h -7.28017 l -1.0542,2.33164 q -0.19844,0.43408 -0.19844,0.64492 0,0.42168 0.64492,0.59531 v 0.33487 h -3.42305 v -0.33487 q 0.4961,-0.0868 0.76895,-0.38447 0.28525,-0.31006 0.66973,-1.16582 l 4.60127,-9.99629 q 0.38447,-0.83096 0.38447,-1.14102 0,-0.43408 -0.62012,-0.5333 v -0.33486 h 4.03076 v 0.33486 q -0.62011,0.13643 -0.62011,0.5333 0,0.23565 0.49609,1.32706 l 4.41523,9.61181 q 0.44649,0.95498 0.76895,1.31465 0.32246,0.35967 0.81855,0.43408 v 0.33487 h -3.62148 v -0.33487 q 0.58291,-0.12402 0.58291,-0.42168 0,-0.14883 -0.29766,-0.81855 z m -0.58291,-1.35186 -3.03857,-6.79648 -3.06338,6.79648 z"
           style="font-style:normal;font-variant:normal;font-weight:normal;font-stretch:normal;font-size:25.4px;font-family:'Copperplate Gothic Light';-inkscape-font-specification:'Copperplate Gothic Light, ';fill:#ffffff;stroke-width:0.264583"
           id="path51" />
      </g>
    </g>
  </g>
</svg>
