<?xml version="1.0" encoding="UTF-8" standalone="no"?>
<svg
   xmlns:dc="http://purl.org/dc/elements/1.1/"
   xmlns:cc="http://creativecommons.org/ns#"
   xmlns:rdf="http://www.w3.org/1999/02/22-rdf-syntax-ns#"
   xmlns:svg="http://www.w3.org/2000/svg"
   xmlns="http://www.w3.org/2000/svg"
   xmlns:sodipodi="http://sodipodi.sourceforge.net/DTD/sodipodi-0.dtd"
   xmlns:inkscape="http://www.inkscape.org/namespaces/inkscape"
   width="443.405"
   height="256"
   viewBox="0 0 117.31757 67.733335"
   version="1.1"
   id="svg8"
   inkscape:version="1.0.1 (3bc2e813f5, 2020-09-07)"
   sodipodi:docname="4x4.svg">
  <defs
     id="defs2" />
  <sodipodi:namedview
     id="base"
     pagecolor="#ffffff"
     bordercolor="#666666"
     borderopacity="1.0"
     inkscape:pageopacity="0.0"
     inkscape:pageshadow="2"
     inkscape:zoom="0.64"
     inkscape:cx="966.86422"
     inkscape:cy="192.55024"
     inkscape:document-units="mm"
     inkscape:current-layer="layer1"
     showgrid="true"
     showborder="true"
     inkscape:snap-global="true"
     inkscape:window-width="1920"
     inkscape:window-height="1017"
     inkscape:window-x="-8"
     inkscape:window-y="-8"
     inkscape:window-maximized="1"
     inkscape:document-rotation="0"
     units="px">
    <inkscape:grid
       type="axonomgrid"
       id="grid815"
       units="px"
       empspacing="5"
       spacingy="26.458333"
       enabled="false" />
  </sodipodi:namedview>
  <metadata
     id="metadata5">
    <rdf:RDF>
      <cc:Work
         rdf:about="">
        <dc:format>image/svg+xml</dc:format>
        <dc:type
           rdf:resource="http://purl.org/dc/dcmitype/StillImage" />
        <dc:title></dc:title>
      </cc:Work>
    </rdf:RDF>
  </metadata>
  <g
     inkscape:label="Layer 1"
     inkscape:groupmode="layer"
     id="layer1">
    <g
       id="g1350"
       transform="matrix(0.02047811,0,0,0.02047811,8.9371153,21.733437)">
      <path
         inkscape:connector-curvature="0"
         id="path1222"
         d="M 2062.2229,2281.375 -458.27177,826.16666 2749.6305,-1025.9167 5040.9889,296.99996 l 114.568,66.1459 114.568,66.1458 z"
         style="fill:#800000;stroke:#000000;stroke-width:0.264583px;stroke-linecap:butt;stroke-linejoin:miter;stroke-opacity:1" />
      <g
         transform="translate(205.05208,152.13542)"
         id="g1285">
        <path
           style="opacity:0.35;fill:#000000;stroke:none;stroke-width:0.264583px;stroke-linecap:butt;stroke-linejoin:miter;stroke-opacity:1"
           d="m 1512.2968,905.54166 252.0495,92.60416 274.9631,26.45838 297.8766,39.6874 68.7408,-13.2291 L 3414.1246,468.97916 3162.0751,323.45833 3047.5073,257.3125 2910.0256,230.85417 2795.4578,217.625 1695.6055,773.24999 Z"
           id="path1204"
           inkscape:connector-curvature="0" />
        <path
           style="fill:#1d1d1d;fill-opacity:1;stroke:none;stroke-width:0.264583px;stroke-linecap:butt;stroke-linejoin:miter;stroke-opacity:1"
           d="m 1947.655,495.4375 v 211.66666 l -274.9631,158.75 V 654.1875 Z"
           id="path1190"
           inkscape:connector-curvature="0" />
        <path
           style="fill:#1d1d1d;fill-opacity:1;stroke:none;stroke-width:0.264583px;stroke-linecap:butt;stroke-linejoin:miter;stroke-opacity:1"
           d="M 1947.655,495.4375 2864.1984,-33.729172 V 177.9375 L 1947.655,707.1042 Z"
           id="path1160"
           inkscape:connector-curvature="0" />
        <path
           style="fill:#484848;fill-opacity:1;stroke:none;stroke-width:0.264583px;stroke-linecap:butt;stroke-linejoin:miter;stroke-opacity:1"
           d="m 2864.1984,177.9375 v 52.91667 L 1947.655,760.02083 v -52.91667 z"
           id="path999"
           inkscape:connector-curvature="0" />
        <path
           inkscape:connector-curvature="0"
           style="fill:#505050;fill-opacity:1;stroke:none;stroke-width:1px;stroke-linecap:butt;stroke-linejoin:miter;stroke-opacity:1"
           d="M 5629.1641,872.51953 4589.9355,1472.5195 v 300 l 1212.4336,700 v 0 h 519.6133 l 1039.2304,-600 z"
           id="path825"
           transform="scale(0.26458333)" />
        <path
           style="fill:#00b6e5;fill-opacity:1;stroke:none;stroke-width:0.264583px;stroke-linecap:butt;stroke-linejoin:miter;stroke-opacity:1"
           d="m 1924.7415,482.20834 137.4815,-317.5 -412.4446,-238.124995 -137.4815,317.499995 z"
           id="path833"
           inkscape:connector-curvature="0" />
        <path
           style="fill:#505050;fill-opacity:1;stroke:#505050;stroke-width:0.765;stroke-linecap:butt;stroke-linejoin:miter;stroke-miterlimit:4;stroke-dasharray:none;stroke-opacity:1"
           d="m 1947.655,468.97916 -22.9136,13.22917 -435.3582,-251.35416 22.9136,-13.22917 z"
           id="path837"
           inkscape:connector-curvature="0" />
        <path
           style="fill:#1e1e1e;fill-opacity:1;stroke:none;stroke-width:0.264583px;stroke-linecap:butt;stroke-linejoin:miter;stroke-opacity:1"
           d="m 2085.1365,204.39583 -114.5679,277.8125 -22.9136,13.22917 137.4815,-317.5 z"
           id="path869"
           inkscape:connector-curvature="0" />
        <path
           style="fill:#1e1e1e;fill-opacity:1;stroke:none;stroke-width:0.264583px;stroke-linecap:butt;stroke-linejoin:miter;stroke-opacity:1"
           d="M 2543.4083,-60.187495 V 125.02083 L 2520.4947,138.25 V -46.958329 Z"
           id="path875"
           inkscape:connector-curvature="0" />
        <path
           style="fill:#1e1e1e;fill-opacity:1;stroke:none;stroke-width:0.264583px;stroke-linecap:butt;stroke-linejoin:miter;stroke-opacity:1"
           d="m 2543.4083,125.02083 v 26.45834 L 1970.5686,482.20833 V 455.75 Z"
           id="path877"
           inkscape:connector-curvature="0" />
        <path
           style="fill:#1e1e1e;fill-opacity:1;stroke:none;stroke-width:0.264583px;stroke-linecap:butt;stroke-linejoin:miter;stroke-opacity:1"
           d="M 2291.3588,270.54167 V 85.333336 L 2314.2724,72.10417 V 257.3125 Z"
           id="path879"
           inkscape:connector-curvature="0" />
        <path
           style="fill:#007390;fill-opacity:1;stroke:none;stroke-width:0.264583px;stroke-linecap:butt;stroke-linejoin:miter;stroke-opacity:1"
           d="M 2314.2724,72.10417 2520.4947,-46.958329 V 138.25 l -206.2223,119.0625 z"
           id="path889"
           inkscape:connector-curvature="0" />
        <path
           style="fill:#007390;fill-opacity:1;stroke:none;stroke-width:0.264583px;stroke-linecap:butt;stroke-linejoin:miter;stroke-opacity:1"
           d="M 2085.1365,204.39583 1970.5686,455.75 2291.3588,270.54167 V 85.333336 Z"
           id="path891"
           inkscape:connector-curvature="0" />
        <path
           style="fill:#464646;fill-opacity:1;stroke:#464646;stroke-width:1.265;stroke-linecap:butt;stroke-linejoin:miter;stroke-miterlimit:4;stroke-dasharray:none;stroke-opacity:1"
           d="m 1672.6919,654.1875 h -137.4815 v 26.45833 h 137.4815 z"
           id="path901"
           inkscape:connector-curvature="0" />
        <path
           style="fill:#007390;fill-opacity:1;stroke:none;stroke-width:0.264583px;stroke-linecap:butt;stroke-linejoin:miter;stroke-opacity:1"
           d="M 2772.5441,-192.47916 V -7.2708293 L 2543.4083,125.02083 V -60.187495 Z"
           id="path907"
           inkscape:connector-curvature="0" />
        <path
           style="fill:#202020;fill-opacity:1;stroke:none;stroke-width:0.264583px;stroke-linecap:butt;stroke-linejoin:miter;stroke-opacity:1"
           d="m 2772.5441,-218.93749 91.6543,52.91667 -22.9134,13.22916 -68.7409,-39.6875 z"
           id="path909"
           inkscape:connector-curvature="0" />
        <path
           style="fill:#1e1e1e;fill-opacity:1;stroke:none;stroke-width:0.264583px;stroke-linecap:butt;stroke-linejoin:miter;stroke-opacity:1"
           d="m 2864.1984,-60.187495 v 26.458333 L 2543.4083,151.47917 v -26.45834 z"
           id="path915"
           inkscape:connector-curvature="0" />
        <path
           style="fill:#1e1e1e;fill-opacity:1;stroke:none;stroke-width:0.264583px;stroke-linecap:butt;stroke-linejoin:miter;stroke-opacity:1"
           d="m 2841.285,-152.79166 v 105.833331 l 22.9134,-13.229166 V -166.02082 Z"
           id="path917"
           inkscape:connector-curvature="0" />
        <path
           style="fill:#1d1d1d;fill-opacity:1;stroke:none;stroke-width:0.264583px;stroke-linecap:butt;stroke-linejoin:miter;stroke-opacity:1"
           d="m 2772.5441,-192.47916 68.7409,39.6875 v 105.833331 l -68.7409,39.6874997 z"
           id="path919"
           inkscape:connector-curvature="0" />
        <path
           style="fill:#585858;fill-opacity:1;stroke:none;stroke-width:0.264583px;stroke-linecap:butt;stroke-linejoin:miter;stroke-opacity:1"
           d="m 2864.1984,-33.729162 22.9137,-13.229167 -22.9137,-13.229166 z"
           id="path921"
           inkscape:connector-curvature="0" />
        <path
           style="fill:#1f1f1f;fill-opacity:1;stroke:none;stroke-width:0.264583px;stroke-linecap:butt;stroke-linejoin:miter;stroke-opacity:1"
           d="M 2887.1121,-46.958329 V 138.25 l -22.9137,13.22917 V -33.729162 Z"
           id="path927"
           inkscape:connector-curvature="0" />
        <path
           style="fill:#414141;fill-opacity:1;stroke:none;stroke-width:0.264583px;stroke-linecap:butt;stroke-linejoin:miter;stroke-opacity:1"
           d="m 1993.4822,707.10416 -297.8767,171.97916 -22.9136,-13.22916 297.8767,-171.97917 z"
           id="path1011"
           inkscape:connector-curvature="0" />
        <path
           style="fill:#1d1d1d;fill-opacity:1;stroke:none;stroke-width:0.264583px;stroke-linecap:butt;stroke-linejoin:miter;stroke-opacity:1"
           d="M 1993.4823,707.10417 V 733.5625 L 1695.6056,905.54167 V 879.08333 Z"
           id="path1013"
           inkscape:connector-curvature="0" />
        <path
           inkscape:connector-curvature="0"
           style="fill:#464646;fill-opacity:1;stroke:none;stroke-width:1px;stroke-linecap:butt;stroke-linejoin:miter;stroke-opacity:1"
           d="m 5802.3691,2772.5195 v 500 h 519.6153 v -500 z"
           transform="scale(0.26458333)"
           id="path1023" />
        <path
           style="fill:#505050;fill-opacity:1;stroke:none;stroke-width:0.264583px;stroke-linecap:butt;stroke-linejoin:miter;stroke-opacity:1"
           d="m 1695.6056,879.08332 h -183.3087 l 22.9136,-13.22916 h 137.4815 z"
           id="path1037"
           inkscape:connector-curvature="0" />
        <path
           style="fill:#505050;fill-opacity:1;stroke:none;stroke-width:0.264583px;stroke-linecap:butt;stroke-linejoin:miter;stroke-opacity:1"
           d="M 1512.2968,879.08333 1191.5066,693.875 l 22.9136,-13.22917 320.7902,185.20834 z"
           id="path1043"
           inkscape:connector-curvature="0" />
        <path
           style="fill:#1d1d1d;fill-opacity:1;stroke:none;stroke-width:0.264583px;stroke-linecap:butt;stroke-linejoin:miter;stroke-opacity:1"
           d="m 1695.6055,905.54167 h -183.3087 v -26.45834 h 183.3087 z"
           id="path1045"
           inkscape:connector-curvature="0" />
        <path
           style="fill:#6a6a6a;fill-opacity:1;stroke:none;stroke-width:0.264583px;stroke-linecap:butt;stroke-linejoin:miter;stroke-opacity:1"
           d="M 1512.2968,879.08333 1191.5066,693.875 v 26.45833 l 320.7902,185.20834 z"
           id="path1047"
           inkscape:connector-curvature="0" />
        <path
           style="fill:#414141;fill-opacity:1;stroke:none;stroke-width:0.264583px;stroke-linecap:butt;stroke-linejoin:miter;stroke-opacity:1"
           d="m 1191.5066,693.87499 v -26.45833 l 22.9136,-39.6875 v 52.91666 z"
           id="path1051"
           inkscape:connector-curvature="0" />
        <path
           style="fill:#1d1d1d;fill-opacity:1;stroke:none;stroke-width:0.264583px;stroke-linecap:butt;stroke-linejoin:miter;stroke-opacity:1"
           d="m 2864.1984,230.85416 v 26.45833 l -870.7162,502.70833 v -26.45833 z"
           id="path1007"
           inkscape:connector-curvature="0" />
        <path
           style="fill:#e6e6e6;fill-opacity:1;stroke:none;stroke-width:0.264583px;stroke-linecap:butt;stroke-linejoin:miter;stroke-opacity:1"
           d="m 1672.6919,680.64582 -68.7407,13.22917 v 52.91666 l 68.7407,-13.22917 z"
           id="path1110"
           inkscape:connector-curvature="0" />
        <path
           style="fill:#f9f9f9;fill-opacity:1;stroke:none;stroke-width:0.264583px;stroke-linecap:butt;stroke-linejoin:miter;stroke-opacity:1"
           d="m 1603.9512,693.875 -68.7408,-13.22917 v 52.91666 l 68.7408,13.22917 z"
           id="path1112"
           inkscape:connector-curvature="0" />
        <path
           style="fill:#ececec;fill-opacity:1;stroke:#ececec;stroke-width:0.865;stroke-linecap:butt;stroke-linejoin:miter;stroke-miterlimit:4;stroke-dasharray:none;stroke-opacity:1"
           d="m 1672.6919,680.64583 h -137.4815 l 68.7408,13.22917 z"
           id="path1114"
           inkscape:connector-curvature="0" />
        <g
           style="stroke:none"
           id="g1126"
           transform="matrix(1,-0.57735027,0,1,19.878171,1424.6697)">
          <g
             style="stroke:none;stroke-width:1.197"
             id="g1184"
             transform="matrix(0.83541975,0,0,0.83541975,627.24772,-680.18432)">
            <path
               id="circle1176"
               style="opacity:1;fill:#000000;fill-opacity:1;fill-rule:evenodd;stroke:none;stroke-width:3.59101;stroke-miterlimit:4;stroke-dasharray:none;stroke-opacity:1"
               d="m 2586.0601,1339.6611 a 144.71364,144.71364 0 0 1 -144.7137,144.7137 144.71364,144.71364 0 0 1 -144.7136,-144.7137 144.71364,144.71364 0 0 1 144.7136,-144.7136 144.71364,144.71364 0 0 1 144.7137,144.7136 z" />
            <path
               id="circle1178"
               style="opacity:1;fill:#000000;fill-opacity:1;fill-rule:evenodd;stroke:none;stroke-width:3.59101;stroke-miterlimit:4;stroke-dasharray:none;stroke-opacity:1"
               d="m 2622.4404,1379.6821 a 144.71364,144.71364 0 0 1 -144.7136,144.7137 144.71364,144.71364 0 0 1 -144.7136,-144.7137 144.71364,144.71364 0 0 1 144.7136,-144.7136 144.71364,144.71364 0 0 1 144.7136,144.7136 z" />
            <path
               id="circle1180"
               style="opacity:1;fill:#ffffff;fill-opacity:1;fill-rule:evenodd;stroke:none;stroke-width:3.59101;stroke-miterlimit:4;stroke-dasharray:none;stroke-opacity:1"
               d="m 2580.3455,1379.6821 a 102.6187,102.6187 0 0 1 -102.6187,102.6187 102.6187,102.6187 0 0 1 -102.6187,-102.6187 102.6187,102.6187 0 0 1 102.6187,-102.6187 102.6187,102.6187 0 0 1 102.6187,102.6187 z" />
            <path
               id="circle1182"
               style="opacity:1;fill:#808080;fill-opacity:1;fill-rule:evenodd;stroke:none;stroke-width:3.59101;stroke-miterlimit:4;stroke-dasharray:none;stroke-opacity:1"
               d="m 2567.8846,1364.9875 a 102.6187,102.6187 0 0 1 -102.6187,102.6187 102.6187,102.6187 0 0 1 -102.6187,-102.6187 102.6187,102.6187 0 0 1 102.6187,-102.6186 102.6187,102.6187 0 0 1 102.6187,102.6186 z" />
          </g>
          <g
             transform="matrix(0.83541975,0,0,0.83541975,-49.093428,-691.98517)"
             id="g1148"
             style="stroke:none;stroke-width:1.197">
            <path
               id="circle1140"
               style="opacity:1;fill:#000000;fill-opacity:1;fill-rule:evenodd;stroke:none;stroke-width:3.59101;stroke-miterlimit:4;stroke-dasharray:none;stroke-opacity:1"
               d="m 2586.0601,1339.6611 a 144.71364,144.71364 0 0 1 -144.7137,144.7137 144.71364,144.71364 0 0 1 -144.7136,-144.7137 144.71364,144.71364 0 0 1 144.7136,-144.7136 144.71364,144.71364 0 0 1 144.7137,144.7136 z" />
            <path
               id="circle1142"
               style="opacity:1;fill:#000000;fill-opacity:1;fill-rule:evenodd;stroke:none;stroke-width:3.59101;stroke-miterlimit:4;stroke-dasharray:none;stroke-opacity:1"
               d="m 2622.4404,1379.6821 a 144.71364,144.71364 0 0 1 -144.7136,144.7137 144.71364,144.71364 0 0 1 -144.7136,-144.7137 144.71364,144.71364 0 0 1 144.7136,-144.7136 144.71364,144.71364 0 0 1 144.7136,144.7136 z" />
            <path
               id="circle1144"
               style="opacity:1;fill:#ffffff;fill-opacity:1;fill-rule:evenodd;stroke:none;stroke-width:3.59101;stroke-miterlimit:4;stroke-dasharray:none;stroke-opacity:1"
               d="m 2580.3455,1379.6821 a 102.6187,102.6187 0 0 1 -102.6187,102.6187 102.6187,102.6187 0 0 1 -102.6187,-102.6187 102.6187,102.6187 0 0 1 102.6187,-102.6187 102.6187,102.6187 0 0 1 102.6187,102.6187 z" />
            <path
               id="circle1146"
               style="opacity:1;fill:#808080;fill-opacity:1;fill-rule:evenodd;stroke:none;stroke-width:3.59101;stroke-miterlimit:4;stroke-dasharray:none;stroke-opacity:1"
               d="m 2567.8846,1364.9875 a 102.6187,102.6187 0 0 1 -102.6187,102.6187 102.6187,102.6187 0 0 1 -102.6187,-102.6187 102.6187,102.6187 0 0 1 102.6187,-102.6186 102.6187,102.6187 0 0 1 102.6187,102.6186 z" />
          </g>
        </g>
        <path
           style="fill:#505050;fill-opacity:1;stroke:#505050;stroke-width:2.465;stroke-linecap:butt;stroke-linejoin:miter;stroke-miterlimit:4;stroke-dasharray:none;stroke-opacity:1"
           d="m 2726.717,-218.93749 22.9137,13.22917 -641.5806,370.41665 -22.9136,-13.22916 z"
           id="path1166"
           inkscape:connector-curvature="0" />
        <path
           style="fill:#515151;fill-opacity:1;stroke:none;stroke-width:2;stroke-linecap:butt;stroke-linejoin:miter;stroke-miterlimit:4;stroke-dasharray:none;stroke-opacity:1"
           d="M 2108.0501,164.70833 1649.7783,-99.874995 1626.8648,-86.645828 2085.1365,177.9375 Z"
           id="path1168"
           inkscape:connector-curvature="0" />
        <path
           style="fill:#505050;fill-opacity:1;stroke:#505050;stroke-width:2.1;stroke-linecap:butt;stroke-linejoin:miter;stroke-miterlimit:4;stroke-dasharray:none;stroke-opacity:1"
           d="m 2772.5441,-218.93749 -458.2717,-264.58333 -22.9136,13.22916 458.2719,264.58334 z"
           id="path1170"
           inkscape:connector-curvature="0" />
        <path
           inkscape:connector-curvature="0"
           id="path1172"
           d="m 2291.3589,-470.29165 22.9137,13.22917 -641.5806,370.416652 -22.9136,-13.22916 z"
           style="fill:#505050;fill-opacity:1;stroke:none;stroke-width:0.264583px;stroke-linecap:butt;stroke-linejoin:miter;stroke-opacity:1" />
        <path
           style="fill:#1e1e1e;fill-opacity:1;stroke:none;stroke-width:0.264583px;stroke-linecap:butt;stroke-linejoin:miter;stroke-opacity:1"
           d="m 2772.5441,-218.93749 v 26.45833 L 2085.1365,204.39583 V 177.9375 Z"
           id="path1174"
           inkscape:connector-curvature="0" />
        <path
           style="fill:#ececec;fill-opacity:1;stroke:none;stroke-width:0.264583px;stroke-linecap:butt;stroke-linejoin:miter;stroke-opacity:1"
           d="m 1214.4202,416.0625 -22.9136,39.6875 22.9136,39.68749 z"
           id="path1186"
           inkscape:connector-curvature="0" />
        <path
           style="fill:#e6e6e6;fill-opacity:1;stroke:#e6e6e6;stroke-width:0.665;stroke-linecap:butt;stroke-linejoin:miter;stroke-miterlimit:4;stroke-dasharray:none;stroke-opacity:1"
           d="m 1214.4202,548.35416 -22.9136,-39.6875 V 455.75 l 22.9136,39.68749 z"
           id="path1188"
           inkscape:connector-curvature="0" />
        <path
           style="fill:#6a6a6a;fill-opacity:1;stroke:#6a6a6a;stroke-width:1.765;stroke-linecap:butt;stroke-linejoin:miter;stroke-miterlimit:4;stroke-dasharray:none;stroke-opacity:1"
           d="M 1535.2104,654.1875 1214.4202,468.97916 v 211.66667 l 320.7902,185.20833 z"
           id="path1194"
           inkscape:connector-curvature="0" />
        <path
           style="fill:#515151;fill-opacity:1;stroke:#505050;stroke-width:2;stroke-linecap:butt;stroke-linejoin:miter;stroke-miterlimit:4;stroke-dasharray:none;stroke-opacity:1"
           d="m 1947.655,495.4375 137.4815,-317.5 -22.9136,-13.22917 -137.4815,317.5 z"
           id="path831"
           inkscape:connector-curvature="0" />
        <path
           style="fill:#505050;fill-opacity:1;stroke:#505050;stroke-width:2.065;stroke-linecap:butt;stroke-linejoin:miter;stroke-miterlimit:4;stroke-dasharray:none;stroke-opacity:1"
           d="M 2314.2724,-457.06249 1672.6919,-86.645828 2085.1365,151.47917 2726.717,-218.93749 Z"
           id="path1196"
           inkscape:connector-curvature="0" />
        <path
           style="opacity:0.4;fill:#ffffff;stroke:none;stroke-width:0.264583px;stroke-linecap:butt;stroke-linejoin:miter;stroke-opacity:1"
           d="M 1649.7783,-73.416662 1833.087,402.83333 1512.2968,217.625 Z"
           id="path1206"
           inkscape:connector-curvature="0" />
        <path
           style="fill:#515151;fill-opacity:1;stroke:none;stroke-width:0.264583px;stroke-linecap:butt;stroke-linejoin:miter;stroke-opacity:1"
           d="m 1489.3832,230.85417 137.4816,-317.499998 22.9135,13.229166 -137.4815,317.499992 z"
           id="path835"
           inkscape:connector-curvature="0" />
        <path
           style="fill:#000000;stroke:none;stroke-width:0.264583px;stroke-linecap:butt;stroke-linejoin:miter;stroke-opacity:1"
           d="m 1260.2474,574.8125 229.1358,132.29166 v 79.375 L 1260.2474,654.1875 Z"
           id="path1200"
           inkscape:connector-curvature="0" />
        <path
           style="fill:#ffeeaa;stroke:none;stroke-width:0.264583px;stroke-linecap:butt;stroke-linejoin:miter;stroke-opacity:1"
           d="m 1397.7289,812.93749 -137.4815,-79.375 v 26.45834 l 137.4815,79.375 z"
           id="path1202"
           inkscape:connector-curvature="0" />
        <path
           style="opacity:1;fill:#66d3ef;fill-opacity:1;stroke:none;stroke-width:0.264583px;stroke-linecap:butt;stroke-linejoin:miter;stroke-opacity:1"
           d="M 1878.9142,429.29167 1718.5191,-33.729162 1787.2599,5.958337 1901.8278,442.52083 Z"
           id="path1208"
           inkscape:connector-curvature="0" />
        <path
           style="opacity:0.25;fill:#ffffff;stroke:none;stroke-width:0.264583px;stroke-linecap:butt;stroke-linejoin:miter;stroke-opacity:1"
           d="M 1328.9881,323.45833 1351.9017,548.35416 1466.4696,614.5 1374.8153,297 Z"
           id="path1214"
           inkscape:connector-curvature="0" />
        <path
           style="fill:#7c7c7c;fill-opacity:1;stroke:none;stroke-width:0.264583px;stroke-linecap:butt;stroke-linejoin:miter;stroke-opacity:1"
           d="m 1397.7289,283.77083 91.6543,343.95833 45.8272,26.45834 -114.5679,-383.64583 z"
           id="path1218"
           inkscape:connector-curvature="0" />
      </g>
    </g>
  </g>
</svg>
