<?xml version="1.0" encoding="UTF-8" standalone="no"?>
<!-- Created with Inkscape (http://www.inkscape.org/) -->

<svg
   xmlns:dc="http://purl.org/dc/elements/1.1/"
   xmlns:cc="http://creativecommons.org/ns#"
   xmlns:rdf="http://www.w3.org/1999/02/22-rdf-syntax-ns#"
   xmlns:svg="http://www.w3.org/2000/svg"
   xmlns="http://www.w3.org/2000/svg"
   xmlns:sodipodi="http://sodipodi.sourceforge.net/DTD/sodipodi-0.dtd"
   xmlns:inkscape="http://www.inkscape.org/namespaces/inkscape"
   width="250"
   height="146"
   viewBox="0 0 66.145835 38.629189"
   version="1.1"
   id="svg978"
   inkscape:version="0.92.3 (2405546, 2018-03-11)"
   sodipodi:docname="car.svg">
  <defs
     id="defs972" />
  <sodipodi:namedview
     id="base"
     pagecolor="#ffffff"
     bordercolor="#666666"
     borderopacity="1.0"
     inkscape:pageopacity="0.0"
     inkscape:pageshadow="2"
     inkscape:zoom="2.8"
     inkscape:cx="174.24476"
     inkscape:cy="59.195693"
     inkscape:document-units="mm"
     inkscape:current-layer="g1809"
     showgrid="true"
     showborder="true"
     inkscape:snap-global="false"
     inkscape:window-width="1920"
     inkscape:window-height="1001"
     inkscape:window-x="-9"
     inkscape:window-y="-9"
     inkscape:window-maximized="1"
     units="px" />
  <metadata
     id="metadata975">
    <rdf:RDF>
      <cc:Work
         rdf:about="">
        <dc:format>image/svg+xml</dc:format>
        <dc:type
           rdf:resource="http://purl.org/dc/dcmitype/StillImage" />
        <dc:title></dc:title>
      </cc:Work>
    </rdf:RDF>
  </metadata>
  <g
     inkscape:label="Layer 1"
     inkscape:groupmode="layer"
     id="layer1"
     transform="translate(0,-258.37048)">
    <g
       id="g1809"
       inkscape:export-filename="C:\Users\Houbenz\Desktop\g1809.png"
       inkscape:export-xdpi="37.095848"
       inkscape:export-ydpi="37.095848">
      <g
         id="g1817"
         transform="matrix(0.07737097,0,0,0.07737097,49.36953,247.69295)"
         style="stroke:none;stroke-width:12.92474461">
        <path
           style="fill:#700e0e;fill-opacity:1;stroke:none;stroke-width:3.41967177px;stroke-linecap:butt;stroke-linejoin:miter;stroke-opacity:1"
           d="M -579.17166,381.84589 -164.86636,142.6466 217.56931,363.44593 -244.54047,630.24514 -626.97612,409.4458 Z"
           id="path1694"
           inkscape:connector-curvature="0" />
        <g
           style="stroke:none;stroke-width:6.28398609"
           transform="matrix(2.056775,0,0,2.056775,-425.49309,131.61445)"
           id="g1753">
          <path
             inkscape:connector-curvature="0"
             id="path1682"
             d="m 45.827177,164.70833 29.787664,11.90625 29.787669,1.32292 h 45.82717 l 98.52843,-56.88542 2.29136,-9.26041 -34.37038,-19.843753 -18.33087,-10.583331 -11.4568,-3.96875 z"
             style="opacity:0.35;fill:#000000;stroke:none;stroke-width:1.66263771px;stroke-linecap:butt;stroke-linejoin:miter;stroke-opacity:1" />
          <g
             style="stroke:none;stroke-width:6.28398609"
             id="g1691">
            <path
               style="fill:#d30000;fill-opacity:1;stroke:none;stroke-width:1.66263771px;stroke-linecap:butt;stroke-linejoin:miter;stroke-opacity:1"
               d="M 181.01735,97.239583 V 73.427086 l 9.16543,-5.291666 v 23.812497 z"
               id="path1668"
               inkscape:connector-curvature="0" />
            <path
               style="fill:#d30000;fill-opacity:1;stroke:none;stroke-width:1.66263771px;stroke-linecap:butt;stroke-linejoin:miter;stroke-opacity:1"
               d="m 160.39512,85.333336 20.62223,-11.90625 v 26.458331 l -20.62223,11.906253 z"
               id="path1648"
               inkscape:connector-curvature="0" />
            <path
               style="fill:#6a6a6a;fill-opacity:1;stroke:none;stroke-width:1.66263771px;stroke-linecap:butt;stroke-linejoin:miter;stroke-opacity:1"
               d="M 68.740765,151.47917 H 45.827177 v 13.22916 h 22.913588 z"
               id="path1525"
               inkscape:connector-curvature="0" />
            <path
               style="fill:#777777;fill-opacity:1;stroke:none;stroke-width:1.66263771px;stroke-linecap:butt;stroke-linejoin:miter;stroke-opacity:1"
               d="M 45.827177,151.47917 0,125.02083 V 138.25 l 45.827177,26.45833 z"
               id="path1527"
               inkscape:connector-curvature="0" />
            <path
               style="fill:#ff9b9b;fill-opacity:1;stroke:none;stroke-width:1.66263771px;stroke-linecap:butt;stroke-linejoin:miter;stroke-opacity:1"
               d="m 0,125.02083 2.2913588,-11.90625 45.8271762,26.45834 -2.291358,11.90625 z"
               id="path1529"
               inkscape:connector-curvature="0" />
            <path
               style="fill:#ffffff;fill-opacity:1;stroke:none;stroke-width:1.66263771px;stroke-linecap:butt;stroke-linejoin:miter;stroke-opacity:1"
               d="m 48.118535,139.57292 20.62223,1.32291 v 10.58334 H 45.827177 Z"
               id="path1533"
               inkscape:connector-curvature="0" />
            <path
               style="fill:#d30000;fill-opacity:1;stroke:none;stroke-width:1.66263771px;stroke-linecap:butt;stroke-linejoin:miter;stroke-opacity:1"
               d="m 68.740765,164.70833 v -23.8125 l 22.913589,-15.875 11.456796,-6.61458 v 26.45833 z"
               id="path1539"
               inkscape:connector-curvature="0" />
            <path
               style="fill:#d30000;fill-opacity:1;stroke:none;stroke-width:1.66263771px;stroke-linecap:butt;stroke-linejoin:miter;stroke-opacity:1"
               d="m 91.654354,125.02083 2.291357,-3.96875 4.582719,-2.64583 v 2.64583 z"
               id="path1563"
               inkscape:connector-curvature="0" />
            <path
               style="fill:#d30000;fill-opacity:1;stroke:none;stroke-width:1.66263771px;stroke-linecap:butt;stroke-linejoin:miter;stroke-opacity:1"
               d="M 93.945711,121.05208 109.98522,93.270833 V 98.5625 l -11.45679,19.84375 z"
               id="path1567"
               inkscape:connector-curvature="0" />
            <path
               style="fill:#00aad4;stroke:none;stroke-width:1.66263771px;stroke-linecap:butt;stroke-linejoin:miter;stroke-opacity:1"
               d="M 109.98522,93.270833 54.992611,61.520837 36.66174,87.979167 93.945711,121.05208 Z"
               id="path1571"
               inkscape:connector-curvature="0" />
            <path
               style="fill:#d30000;fill-opacity:1;stroke:none;stroke-width:1.66263771px;stroke-linecap:butt;stroke-linejoin:miter;stroke-opacity:1"
               d="M 109.98522,93.270833 V 98.5625 l 25.20495,-14.55208 v -5.291667 z"
               id="path1573"
               inkscape:connector-curvature="0" />
            <path
               style="fill:#007c9a;fill-opacity:1;stroke:none;stroke-width:1.66263771px;stroke-linecap:butt;stroke-linejoin:miter;stroke-opacity:1"
               d="M 98.52843,118.40625 109.98522,98.5625 135.19017,84.01042 V 99.885417 L 98.52843,121.05208 Z"
               id="path1575"
               inkscape:connector-curvature="0" />
            <path
               style="fill:#d30000;fill-opacity:1;stroke:none;stroke-width:1.66263771px;stroke-linecap:butt;stroke-linejoin:miter;stroke-opacity:1"
               d="m 103.11115,118.40625 32.07902,-18.520833 v 26.458333 l -32.07902,18.52083 z"
               id="path1577"
               inkscape:connector-curvature="0" />
            <path
               style="fill:#d30000;fill-opacity:1;stroke:none;stroke-width:1.66263771px;stroke-linecap:butt;stroke-linejoin:miter;stroke-opacity:1"
               d="m 135.19017,78.718753 v 47.624997 l 2.29136,-1.32292 V 77.395836 Z"
               id="path1579"
               inkscape:connector-curvature="0" />
            <path
               style="fill:#d30000;fill-opacity:1;stroke:none;stroke-width:1.66263771px;stroke-linecap:butt;stroke-linejoin:miter;stroke-opacity:1"
               d="m 137.48153,98.5625 22.91359,-13.229164 v 26.458334 l -22.91359,13.22916 z"
               id="path1581"
               inkscape:connector-curvature="0" />
            <path
               style="fill:#007c9a;fill-opacity:1;stroke:none;stroke-width:1.66263771px;stroke-linecap:butt;stroke-linejoin:miter;stroke-opacity:1"
               d="m 137.48153,82.687503 20.62223,-11.90625 2.29136,-1.322917 v 15.875 L 137.48153,98.5625 Z"
               id="path1583"
               inkscape:connector-curvature="0" />
            <path
               style="fill:#d30000;fill-opacity:1;stroke:none;stroke-width:1.66263771px;stroke-linecap:butt;stroke-linejoin:miter;stroke-opacity:1"
               d="M 137.48153,77.395836 160.39512,64.16667 v 5.291666 l -22.91359,13.229167 z"
               id="path1585"
               inkscape:connector-curvature="0" />
            <g
               transform="matrix(1.1226794,-0.58741141,0,1.0174264,-118.46032,95.46336)"
               id="g1613"
               style="stroke:none;stroke-width:5.87970829">
              <path
                 style="opacity:1;fill:#000000;fill-opacity:1;fill-rule:evenodd;stroke:none;stroke-width:1.55812275;stroke-miterlimit:4;stroke-dasharray:none;stroke-opacity:1"
                 d="m 195.66507,162.0625 a 10.065,10.06 0 0 1 -10.065,10.06 10.065,10.06 0 0 1 -10.065,-10.06 10.065,10.06 0 0 1 10.065,-10.06 10.065,10.06 0 0 1 10.065,10.06 z"
                 id="ellipse1609" />
              <path
                 style="opacity:1;fill:#ffffff;fill-opacity:1;fill-rule:evenodd;stroke:none;stroke-width:1.55812275;stroke-miterlimit:4;stroke-dasharray:none;stroke-opacity:1"
                 d="m 191.92143,162.0625 a 6.3213668,6.3182268 0 0 1 -6.32136,6.31823 6.3213668,6.3182268 0 0 1 -6.32137,-6.31823 6.3213668,6.3182268 0 0 1 6.32137,-6.31823 6.3213668,6.3182268 0 0 1 6.32136,6.31823 z"
                 id="ellipse1611" />
            </g>
            <path
               transform="matrix(0.88604514,-0.46359898,0,1,0,0)"
               style="opacity:1;fill:#000000;fill-opacity:1;fill-rule:evenodd;stroke:none;stroke-width:1.76910293;stroke-miterlimit:4;stroke-dasharray:none;stroke-opacity:1"
               d="M 116.93455,200.9845 A 12.753038,10.23531 0 0 1 104.18151,211.21981 12.753038,10.23531 0 0 1 91.428473,200.9845 12.753038,10.23531 0 0 1 104.18151,190.74919 12.753038,10.23531 0 0 1 116.93455,200.9845 Z"
               id="path1601" />
            <path
               transform="matrix(0.88604514,-0.46359898,0,1,0,0)"
               style="opacity:1;fill:#ffffff;fill-opacity:1;fill-rule:evenodd;stroke:none;stroke-width:1.76910293;stroke-miterlimit:4;stroke-dasharray:none;stroke-opacity:1"
               d="m 112.19111,200.9845 a 8.0096006,6.4283309 0 0 1 -8.0096,6.42833 8.0096006,6.4283309 0 0 1 -8.0096,-6.42833 8.0096006,6.4283309 0 0 1 8.0096,-6.42833 8.0096006,6.4283309 0 0 1 8.0096,6.42833 z"
               id="ellipse1603" />
            <g
               style="stroke:none;stroke-width:6.28398609"
               transform="translate(-20.410714,0.47247024)"
               id="g982">
              <path
                 transform="matrix(0.88604514,-0.46359898,0,1,0,0)"
                 style="opacity:1;fill:#e6e6e6;fill-opacity:1;fill-rule:evenodd;stroke:none;stroke-width:1.76910293;stroke-miterlimit:4;stroke-dasharray:none;stroke-opacity:1"
                 d="m 135.76011,211.43857 a 8.0096006,6.4283309 0 0 1 -8.0096,6.42833 8.0096006,6.4283309 0 0 1 -8.0096,-6.42833 8.0096006,6.4283309 0 0 1 8.0096,-6.42833 8.0096006,6.4283309 0 0 1 8.0096,6.42833 z"
                 id="ellipse914" />
              <path
                 transform="matrix(0.88604514,-0.46359898,0,1,0,0)"
                 style="opacity:1;fill:#808080;fill-opacity:1;fill-rule:evenodd;stroke:none;stroke-width:1.76910293;stroke-miterlimit:4;stroke-dasharray:none;stroke-opacity:1"
                 d="m 134.96024,210.83154 a 8.0096006,6.4283309 0 0 1 -8.0096,6.42833 8.0096006,6.4283309 0 0 1 -8.0096,-6.42833 8.0096006,6.4283309 0 0 1 8.0096,-6.42833 8.0096006,6.4283309 0 0 1 8.0096,6.42833 z"
                 id="ellipse912" />
            </g>
            <g
               id="g1646"
               transform="matrix(1.1226794,0,0,1.0174264,77.115895,-52.807765)"
               style="stroke:none;stroke-width:5.87970829">
              <g
                 id="g1644"
                 transform="translate(-93.718542,-9.3076229)"
                 style="stroke:none;stroke-width:5.87970829">
                <g
                   id="g1636"
                   transform="matrix(1,-0.57735027,0,1,-3.2072343,105.95354)"
                   style="stroke:none;stroke-width:5.87970829">
                  <path
                     style="opacity:1;fill:#000000;fill-opacity:1;fill-rule:evenodd;stroke:none;stroke-width:1.55812275;stroke-miterlimit:4;stroke-dasharray:none;stroke-opacity:1"
                     d="m 195.66507,162.0625 a 10.065,10.06 0 0 1 -10.065,10.06 10.065,10.06 0 0 1 -10.065,-10.06 10.065,10.06 0 0 1 10.065,-10.06 10.065,10.06 0 0 1 10.065,10.06 z"
                     id="ellipse1632" />
                  <path
                     style="opacity:1;fill:#ffffff;fill-opacity:1;fill-rule:evenodd;stroke:none;stroke-width:1.55812275;stroke-miterlimit:4;stroke-dasharray:none;stroke-opacity:1"
                     d="m 191.92143,162.0625 a 6.3213668,6.3182268 0 0 1 -6.32136,6.31823 6.3213668,6.3182268 0 0 1 -6.32137,-6.31823 6.3213668,6.3182268 0 0 1 6.32137,-6.31823 6.3213668,6.3182268 0 0 1 6.32136,6.31823 z"
                     id="ellipse1634" />
                </g>
                <g
                   transform="matrix(1,-0.57735027,0,1,-1.0690781,107.28988)"
                   id="g1642"
                   style="stroke:none;stroke-width:5.87970829">
                  <path
                     style="opacity:1;fill:#000000;fill-opacity:1;fill-rule:evenodd;stroke:none;stroke-width:1.55812275;stroke-miterlimit:4;stroke-dasharray:none;stroke-opacity:1"
                     d="m 195.66507,162.0625 a 10.065,10.06 0 0 1 -10.065,10.06 10.065,10.06 0 0 1 -10.065,-10.06 10.065,10.06 0 0 1 10.065,-10.06 10.065,10.06 0 0 1 10.065,10.06 z"
                     id="ellipse1638" />
                  <path
                     style="opacity:1;fill:#ffffff;fill-opacity:1;fill-rule:evenodd;stroke:none;stroke-width:1.55812275;stroke-miterlimit:4;stroke-dasharray:none;stroke-opacity:1"
                     d="m 191.92143,162.0625 a 6.3213668,6.3182268 0 0 1 -6.32136,6.31823 6.3213668,6.3182268 0 0 1 -6.32137,-6.31823 6.3213668,6.3182268 0 0 1 6.32137,-6.31823 6.3213668,6.3182268 0 0 1 6.32136,6.31823 z"
                     id="ellipse1640" />
                </g>
              </g>
            </g>
            <path
               style="fill:#ff5b5b;fill-opacity:1;stroke:none;stroke-width:1.66263771px;stroke-linecap:butt;stroke-linejoin:miter;stroke-opacity:1"
               d="M 176.43463,54.906253 109.98522,93.270833 54.992611,61.520837 121.44202,23.156253 Z"
               id="path1654"
               inkscape:connector-curvature="0" />
            <path
               style="fill:#d30000;fill-opacity:1;stroke:none;stroke-width:1.66263771px;stroke-linecap:butt;stroke-linejoin:miter;stroke-opacity:1"
               d="M 160.39512,69.458336 V 64.16667 l 16.03951,-9.260417 v 5.291667 z"
               id="path1656"
               inkscape:connector-curvature="0" />
            <path
               style="fill:#ff5555;fill-opacity:1;stroke:none;stroke-width:1.66263771px;stroke-linecap:butt;stroke-linejoin:miter;stroke-opacity:1"
               d="M 54.992611,61.520837 V 64.16667 L 36.66174,90.625 v -2.645833 z"
               id="path1658"
               inkscape:connector-curvature="0" />
            <path
               style="fill:#d30000;fill-opacity:1;stroke:none;stroke-width:1.66263771px;stroke-linecap:butt;stroke-linejoin:miter;stroke-opacity:1"
               d="m 176.43463,60.19792 11.45679,9.260416 -27.4963,15.875 v -15.875 z"
               id="path1664"
               inkscape:connector-curvature="0" />
            <path
               style="fill:#666666;fill-opacity:1;stroke:none;stroke-width:1.66263771px;stroke-linecap:butt;stroke-linejoin:miter;stroke-opacity:1"
               d="m 176.43463,54.906253 13.74815,13.229167 -2.29136,1.322916 -11.45679,-9.260416 z"
               id="path1672"
               inkscape:connector-curvature="0" />
            <path
               style="fill:#d30000;fill-opacity:1;stroke:none;stroke-width:1.66263771px;stroke-linecap:butt;stroke-linejoin:miter;stroke-opacity:1"
               d="m 34.370383,91.947917 2.291357,-3.96875 57.283971,33.072913 -2.291357,3.96875 z"
               id="path1541"
               inkscape:connector-curvature="0" />
            <path
               style="fill:none;stroke:none;stroke-width:1.66263771px;stroke-linecap:butt;stroke-linejoin:miter;stroke-opacity:1"
               d="m 190.18278,70.781253 -2.29136,1.322917 v 10.583333 l 2.29136,-1.322917 z"
               id="path1678"
               inkscape:connector-curvature="0" />
            <path
               style="fill:#cccccc;stroke:none;stroke-width:1.66263771px;stroke-linecap:butt;stroke-linejoin:miter;stroke-opacity:1"
               d="m 190.18278,73.427086 -4.58271,2.645834 v 7.9375 l 4.58271,-2.645834 z"
               id="path1680"
               inkscape:connector-curvature="0" />
            <path
               style="fill:#000000;stroke:none;stroke-width:1.66263771px;stroke-linecap:butt;stroke-linejoin:miter;stroke-opacity:1"
               d="m 132.89881,106.5 v 2.64583 l -4.58272,2.64584 v -2.64584 z"
               id="path1684"
               inkscape:connector-curvature="0" />
            <path
               inkscape:connector-curvature="0"
               id="path1686"
               d="m 160.39512,90.625006 v 2.64583 l -4.58272,2.64584 v -2.64584 z"
               style="fill:#000000;stroke:none;stroke-width:1.66263771px;stroke-linecap:butt;stroke-linejoin:miter;stroke-opacity:1" />
            <path
               style="fill:#000000;stroke:none;stroke-width:1.66263771px;stroke-linecap:butt;stroke-linejoin:miter;stroke-opacity:1"
               d="M 41.244459,138.25 9.1654354,119.72917 v 7.9375 L 41.244459,146.1875 Z"
               id="path1688"
               inkscape:connector-curvature="0" />
            <path
               style="fill:#ffffff;stroke:none;stroke-width:1.66263771px;stroke-linecap:butt;stroke-linejoin:miter;stroke-opacity:1"
               d="m 11.456793,142.21876 18.330872,10.58333 v -5.29167 L 11.456793,136.92709 Z"
               id="path1692"
               inkscape:connector-curvature="0" />
            <path
               inkscape:connector-curvature="0"
               id="path1716"
               d="m 48.118535,139.57292 20.62223,1.32291 v 10.58334 H 45.827177 Z"
               style="fill:#ffffff;fill-opacity:1;stroke:none;stroke-width:1.66263771px;stroke-linecap:butt;stroke-linejoin:miter;stroke-opacity:1" />
            <path
               style="fill:#ff5555;stroke:none;stroke-width:1.66263771px;stroke-linecap:butt;stroke-linejoin:miter;stroke-opacity:1"
               d="M 68.740765,140.89583 48.118535,139.57292 2.2913588,113.11458 v -2.64583 L 34.370383,91.947917 91.654354,125.02083 Z"
               id="path1537"
               inkscape:connector-curvature="0" />
            <path
               style="fill:#ffffff;stroke:none;stroke-width:1.66263771px;stroke-linecap:butt;stroke-linejoin:miter;stroke-opacity:1"
               d="m 0,125.02083 2.2913588,-14.55208 v 2.64583 z"
               id="path1730"
               inkscape:connector-curvature="0" />
            <path
               style="fill:#ffffff;stroke:none;stroke-width:1.66263771px;stroke-linecap:butt;stroke-linejoin:miter;stroke-opacity:1"
               d="M 0,125.02083 4.5827177,114.4375 2.2913588,110.46875 Z"
               id="path1734"
               inkscape:connector-curvature="0" />
            <path
               style="fill:none;stroke:none;stroke-width:1.66263771px;stroke-linecap:butt;stroke-linejoin:miter;stroke-opacity:1"
               d="m 68.740775,140.89583 -20.62224,-1.32291"
               id="path1736"
               inkscape:connector-curvature="0" />
            <path
               style="opacity:0.5;fill:#ffffff;stroke:none;stroke-width:1.66263771px;stroke-linecap:butt;stroke-linejoin:miter;stroke-opacity:1"
               d="M 55.18939,63.858257 73.375922,109.35826 37.868882,88.858257 Z"
               id="path1744"
               inkscape:connector-curvature="0" />
            <path
               style="fill:#80d5ea;fill-opacity:1;stroke:none;stroke-width:1.66263771px;stroke-linecap:butt;stroke-linejoin:miter;stroke-opacity:1"
               d="m 69.423258,72.493597 13.02939,42.028133 4.154263,2.39846 -11.132783,-41.548109 z"
               id="path1746"
               inkscape:connector-curvature="0" />
            <path
               style="fill:#d30000;fill-opacity:1;stroke:none;stroke-width:1.66263771px;stroke-linecap:butt;stroke-linejoin:miter;stroke-opacity:1"
               d="m 109.98522,93.270833 -1.17533,1.937126 -53.720206,-31.015376 v -2.59022 z"
               id="path1662"
               inkscape:connector-curvature="0" />
            <path
               style="opacity:0.15;fill:#ffffff;stroke:none;stroke-width:1.66263771px;stroke-linecap:butt;stroke-linejoin:miter;stroke-opacity:1"
               d="M 34.868302,132.20238 17.481399,101.96428 25.985863,96.956101 43.18378,136.6436 Z"
               id="path1748"
               inkscape:connector-curvature="0" />
            <path
               style="fill:#ff6e6e;fill-opacity:1;stroke:none;stroke-width:1.66263771px;stroke-linecap:butt;stroke-linejoin:miter;stroke-opacity:1"
               d="M 30.310889,94.499998 51.961523,140 56.291651,139.5 32.908965,92.999998 Z"
               id="path1750"
               inkscape:connector-curvature="0" />
            <g
               style="stroke:none;stroke-width:6.28398609"
               id="g988"
               transform="translate(66.52381,-49.420387)">
              <path
                 transform="matrix(0.88604514,-0.46359898,0,1,0,0)"
                 style="opacity:1;fill:#e6e6e6;fill-opacity:1;fill-rule:evenodd;stroke:none;stroke-width:1.76910293;stroke-miterlimit:4;stroke-dasharray:none;stroke-opacity:1"
                 d="m 135.76011,211.43857 a 8.0096006,6.4283309 0 0 1 -8.0096,6.42833 8.0096006,6.4283309 0 0 1 -8.0096,-6.42833 8.0096006,6.4283309 0 0 1 8.0096,-6.42833 8.0096006,6.4283309 0 0 1 8.0096,6.42833 z"
                 id="ellipse984" />
              <path
                 transform="matrix(0.88604514,-0.46359898,0,1,0,0)"
                 style="opacity:1;fill:#808080;fill-opacity:1;fill-rule:evenodd;stroke:none;stroke-width:1.76910293;stroke-miterlimit:4;stroke-dasharray:none;stroke-opacity:1"
                 d="m 134.96024,210.83154 a 8.0096006,6.4283309 0 0 1 -8.0096,6.42833 8.0096006,6.4283309 0 0 1 -8.0096,-6.42833 8.0096006,6.4283309 0 0 1 8.0096,-6.42833 8.0096006,6.4283309 0 0 1 8.0096,6.42833 z"
                 id="ellipse986" />
            </g>
          </g>
        </g>
      </g>
    </g>
  </g>
</svg>
